<?xml version="1.0" encoding="UTF-8" standalone="no"?>
<!DOCTYPE svg PUBLIC "-//W3C//DTD SVG 1.1//EN" "http://www.w3.org/Graphics/SVG/1.1/DTD/svg11.dtd">
<svg width="100%" height="100%" viewBox="0 0 259 296" version="1.1" xmlns="http://www.w3.org/2000/svg" xmlns:xlink="http://www.w3.org/1999/xlink" xml:space="preserve" xmlns:serif="http://www.serif.com/" style="fill-rule:evenodd;clip-rule:evenodd;stroke-linejoin:round;stroke-miterlimit:2;">
    <g transform="matrix(1,0,0,1,-286,-1.42109e-14)">
        <g id="Descending" transform="matrix(0.6875,0,0,0.8,286,1.42109e-14)">
            <rect x="0" y="0" width="376" height="370" style="fill:none;"/>
            <g transform="matrix(1.45455,0,0,1.25,-85.1271,-53.75)">
                <g transform="matrix(1.21698,0,0,1,-65.1321,0)">
                    <path d="M195.685,57.871C202.502,49.639 213.498,49.639 220.315,57.871C235.98,76.788 263.542,110.07 284.729,135.654C289.614,141.553 291.092,150.457 288.47,158.202C285.849,165.946 279.647,171 272.764,171C235.183,171 179.99,171 142.606,171C135.829,171 129.721,166.023 127.14,158.397C124.559,150.771 126.014,142.002 130.825,136.193C152.069,110.539 179.909,76.921 195.685,57.871ZM163.172,140.333L252.828,140.333L208,86.201L163.172,140.333Z"/>
                </g>
                <g transform="matrix(-1.21698,1.49037e-16,-1.22465e-16,-1,440.682,382)">
                    <path d="M195.685,57.871C202.502,49.639 213.498,49.639 220.315,57.871C235.98,76.788 263.542,110.07 284.729,135.654C289.614,141.553 291.092,150.457 288.47,158.202C285.849,165.946 279.647,171 272.764,171C235.183,171 179.99,171 142.606,171C135.829,171 129.721,166.023 127.14,158.397C124.559,150.771 126.014,142.002 130.825,136.193C152.069,110.539 179.909,76.921 195.685,57.871Z"/>
                    <path d="M195.685,57.871C202.502,49.639 213.498,49.639 220.315,57.871C235.98,76.788 263.542,110.07 284.729,135.654C289.614,141.553 291.092,150.457 288.47,158.202C285.849,165.946 279.647,171 272.764,171C235.183,171 179.99,171 142.606,171C135.829,171 129.721,166.023 127.14,158.397C124.559,150.771 126.014,142.002 130.825,136.193C152.069,110.539 179.909,76.921 195.685,57.871ZM208,86.201L163.172,140.333L252.828,140.333L208,86.201Z"/>
                </g>
            </g>
        </g>
    </g>
</svg>
