<?xml version="1.0" encoding="UTF-8" standalone="no"?>
<!DOCTYPE svg PUBLIC "-//W3C//DTD SVG 1.1//EN" "http://www.w3.org/Graphics/SVG/1.1/DTD/svg11.dtd">
<svg width="100%" height="100%" viewBox="0 0 259 296" version="1.1" xmlns="http://www.w3.org/2000/svg" xmlns:xlink="http://www.w3.org/1999/xlink" xml:space="preserve" xmlns:serif="http://www.serif.com/" style="fill-rule:evenodd;clip-rule:evenodd;stroke-linejoin:round;stroke-miterlimit:2;">
    <g transform="matrix(1,0,0,1,-286,-1.42109e-14)">
        <g id="Descending" transform="matrix(0.6875,0,0,0.8,286,1.42109e-14)">
            <rect x="0" y="0" width="376" height="370" style="fill:none;"/>
            <g transform="matrix(1.45455,0,0,1.25,-85.1271,-53.75)">
                <g transform="matrix(1.21698,0,0,1,-65.1321,0)">
                    <path d="M195.685,57.871C202.502,49.639 213.498,49.639 220.315,57.871C235.98,76.788 263.542,110.07 284.729,135.654C289.614,141.553 291.092,150.457 288.47,158.202C285.849,165.946 279.647,171 272.764,171C235.183,171 179.99,171 142.606,171C135.829,171 129.721,166.023 127.14,158.397C124.559,150.771 126.014,142.002 130.825,136.193C152.069,110.539 179.909,76.921 195.685,57.871Z" style="fill:rgb(191,191,191);"/>
                </g>
                <g transform="matrix(-1.21698,1.49037e-16,-1.22465e-16,-1,440.682,382)">
                    <path d="M195.685,57.871C202.502,49.639 213.498,49.639 220.315,57.871C235.98,76.788 263.542,110.07 284.729,135.654C289.614,141.553 291.092,150.457 288.47,158.202C285.849,165.946 279.647,171 272.764,171C235.183,171 179.99,171 142.606,171C135.829,171 129.721,166.023 127.14,158.397C124.559,150.771 126.014,142.002 130.825,136.193C152.069,110.539 179.909,76.921 195.685,57.871Z"/>
                    <path d="M195.685,57.871C202.502,49.639 213.498,49.639 220.315,57.871C235.98,76.788 263.542,110.07 284.729,135.654C289.614,141.553 291.092,150.457 288.47,158.202C285.849,165.946 279.647,171 272.764,171C235.183,171 179.99,171 142.606,171C135.829,171 129.721,166.023 127.14,158.397C124.559,150.771 126.014,142.002 130.825,136.193C152.069,110.539 179.909,76.921 195.685,57.871ZM203.402,67.335C205.947,64.262 210.053,64.262 212.598,67.335C212.598,67.336 277.012,145.118 277.012,145.118C278.746,147.213 279.271,150.374 278.34,153.123C277.41,155.872 275.208,157.667 272.764,157.667C272.764,157.667 142.606,157.667 142.606,157.667C140.268,157.667 138.161,155.95 137.27,153.318C136.38,150.687 136.882,147.662 138.541,145.658L203.402,67.335Z"/>
                </g>
            </g>
        </g>
    </g>
</svg>
